<svg xmlns="http://www.w3.org/2000/svg" style="display:none;">
    <symbol id='arrow' width="20" height="20" viewBox="0 0 20 20" fill="none" xmlns="http://www.w3.org/2000/svg">
        <path fill-rule="evenodd" clip-rule="evenodd" d="M6.31226 4.28349C6.48712 4.06977 6.80213 4.03827 7.01585 4.21313L13.6159 9.61313C13.7319 9.7081 13.7992 9.85015 13.7992 10.0001C13.7992 10.1501 13.7319 10.2921 13.6159 10.3871L7.01585 15.7871C6.80213 15.962 6.48712 15.9305 6.31226 15.7167C6.13739 15.503 6.16889 15.188 6.38261 15.0131L12.5096 10.0001L6.38261 4.98709C6.16889 4.81223 6.13739 4.49722 6.31226 4.28349Z" fill="#575757"/>
    </symbol>
    <svg id='moon' width="20" height="23" viewBox="0 0 20 23" fill="none" xmlns="http://www.w3.org/2000/svg">
        <path d="M18.9745 15.5556C18.3716 17.2239 17.3532 18.7145 16.0016 19.9069C14.65 21.0993 13.0032 21.9599 11.1946 22.419C9.38592 22.8782 7.46624 22.923 5.59097 22.5498C3.71569 22.1767 1.93751 21.396 0.400391 20.2711C2.97426 20.4397 5.49625 19.8308 7.59949 18.533C9.70273 17.2351 11.2775 15.316 12.0948 13.0549C12.912 10.7937 12.9291 8.30839 12.1435 5.96047C11.358 3.61255 9.81073 1.52449 7.72689 3.05176e-05C9.62576 0.124072 11.4897 0.667342 13.1679 1.58586C14.8461 2.50438 16.2913 3.77233 17.3865 5.28705C18.4818 6.80178 19.1962 8.52071 19.4721 10.3047C19.748 12.0886 19.5775 13.8875 18.9745 15.5556Z" fill="#121212"/>
    </svg>
    <symbol id='sun' width="20" height="20" viewBox="0 0 20 20" fill="none" xmlns="http://www.w3.org/2000/svg">
        <path d="M10 15C11.3261 15 12.5979 14.4732 13.5355 13.5355C14.4732 12.5979 15 11.3261 15 10C15 8.67392 14.4732 7.40215 13.5355 6.46447C12.5979 5.52678 11.3261 5 10 5C8.67392 5 7.40215 5.52678 6.46447 6.46447C5.52678 7.40215 5 8.67392 5 10C5 11.3261 5.52678 12.5979 6.46447 13.5355C7.40215 14.4732 8.67392 15 10 15ZM10 0C10.1658 0 10.3247 0.065848 10.4419 0.183058C10.5592 0.300269 10.625 0.45924 10.625 0.625V3.125C10.625 3.29076 10.5592 3.44973 10.4419 3.56694C10.3247 3.68415 10.1658 3.75 10 3.75C9.83424 3.75 9.67527 3.68415 9.55806 3.56694C9.44085 3.44973 9.375 3.29076 9.375 3.125V0.625C9.375 0.45924 9.44085 0.300269 9.55806 0.183058C9.67527 0.065848 9.83424 0 10 0ZM10 16.25C10.1658 16.25 10.3247 16.3158 10.4419 16.4331C10.5592 16.5503 10.625 16.7092 10.625 16.875V19.375C10.625 19.5408 10.5592 19.6997 10.4419 19.8169C10.3247 19.9342 10.1658 20 10 20C9.83424 20 9.67527 19.9342 9.55806 19.8169C9.44085 19.6997 9.375 19.5408 9.375 19.375V16.875C9.375 16.7092 9.44085 16.5503 9.55806 16.4331C9.67527 16.3158 9.83424 16.25 10 16.25ZM20 10C20 10.1658 19.9342 10.3247 19.8169 10.4419C19.6997 10.5592 19.5408 10.625 19.375 10.625H16.875C16.7092 10.625 16.5503 10.5592 16.4331 10.4419C16.3158 10.3247 16.25 10.1658 16.25 10C16.25 9.83424 16.3158 9.67527 16.4331 9.55806C16.5503 9.44085 16.7092 9.375 16.875 9.375H19.375C19.5408 9.375 19.6997 9.44085 19.8169 9.55806C19.9342 9.67527 20 9.83424 20 10ZM3.75 10C3.75 10.1658 3.68415 10.3247 3.56694 10.4419C3.44973 10.5592 3.29076 10.625 3.125 10.625H0.625C0.45924 10.625 0.300269 10.5592 0.183058 10.4419C0.065848 10.3247 0 10.1658 0 10C0 9.83424 0.065848 9.67527 0.183058 9.55806C0.300269 9.44085 0.45924 9.375 0.625 9.375H3.125C3.29076 9.375 3.44973 9.44085 3.56694 9.55806C3.68415 9.67527 3.75 9.83424 3.75 10ZM17.0713 2.92875C17.1884 3.04595 17.2542 3.2049 17.2542 3.37063C17.2542 3.53635 17.1884 3.6953 17.0713 3.8125L15.3038 5.58125C15.2456 5.63928 15.1767 5.68529 15.1008 5.71667C15.0249 5.74804 14.9436 5.76416 14.8614 5.7641C14.6956 5.76398 14.5366 5.69798 14.4194 5.58063C14.3613 5.52251 14.3153 5.45355 14.284 5.37765C14.2526 5.30176 14.2365 5.22043 14.2365 5.13831C14.2366 4.97246 14.3026 4.81344 14.42 4.69625L16.1875 2.92875C16.3047 2.81158 16.4636 2.74576 16.6294 2.74576C16.7951 2.74576 16.954 2.81158 17.0713 2.92875ZM5.58 14.42C5.69717 14.5372 5.76299 14.6961 5.76299 14.8619C5.76299 15.0276 5.69717 15.1865 5.58 15.3038L3.8125 17.0713C3.69462 17.1851 3.53675 17.2481 3.37287 17.2467C3.209 17.2452 3.05224 17.1795 2.93636 17.0636C2.82048 16.9478 2.75475 16.791 2.75333 16.6271C2.7519 16.4633 2.8149 16.3054 2.92875 16.1875L4.69625 14.42C4.81345 14.3028 4.9724 14.237 5.13812 14.237C5.30385 14.237 5.4628 14.3028 5.58 14.42ZM17.0713 17.0713C16.954 17.1884 16.7951 17.2542 16.6294 17.2542C16.4636 17.2542 16.3047 17.1884 16.1875 17.0713L14.42 15.3038C14.3062 15.1859 14.2432 15.028 14.2446 14.8641C14.246 14.7003 14.3117 14.5435 14.4276 14.4276C14.5435 14.3117 14.7003 14.246 14.8641 14.2446C15.028 14.2432 15.1859 14.3062 15.3038 14.42L17.0713 16.1875C17.1884 16.3047 17.2542 16.4636 17.2542 16.6294C17.2542 16.7951 17.1884 16.954 17.0713 17.0713ZM5.58 5.58125C5.4628 5.69842 5.30385 5.76424 5.13812 5.76424C4.9724 5.76424 4.81345 5.69842 4.69625 5.58125L2.92875 3.8125C2.86906 3.75485 2.82144 3.68588 2.78869 3.60963C2.75593 3.53338 2.73869 3.45136 2.73797 3.36838C2.73725 3.28539 2.75306 3.20309 2.78449 3.12628C2.81591 3.04947 2.86232 2.97969 2.921 2.921C2.97969 2.86232 3.04947 2.81591 3.12628 2.78449C3.20309 2.75306 3.28539 2.73725 3.36838 2.73797C3.45136 2.73869 3.53338 2.75593 3.60963 2.78869C3.68588 2.82144 3.75485 2.86906 3.8125 2.92875L5.58 4.69625C5.6382 4.75431 5.68438 4.82328 5.71589 4.89921C5.7474 4.97514 5.76362 5.05654 5.76362 5.13875C5.76362 5.22096 5.7474 5.30236 5.71589 5.37829C5.68438 5.45422 5.6382 5.52319 5.58 5.58125Z" fill="#121212"/>
    </symbol>
    <symbol id='logo' width="73" height="16" viewBox="0 0 73 16" fill="none" xmlns="http://www.w3.org/2000/svg">
        <path d="M0.899115 0.895596V1.68302H7.5465V2.58616H0.899115V4.26918H0V0H7.5465V0.895596H0.899115Z" fill="#575757"/>
        <path d="M14.4769 2.5862C14.6506 2.58679 14.8226 2.55168 14.982 2.48306C15.1349 2.41767 15.2738 2.32374 15.3912 2.20633C15.6337 1.96172 15.7698 1.63186 15.77 1.28809C15.7718 1.11495 15.7365 0.943418 15.6665 0.784945C15.6017 0.632823 15.5082 0.494479 15.3912 0.377398C15.2731 0.260823 15.1344 0.167003 14.982 0.100669C14.8224 0.0329118 14.6504 -0.00134361 14.4769 4.03208e-05H8.21595V4.27676H9.11506V2.5862H13.2495L14.8128 4.26922H16.0403L14.4769 2.5862ZM9.11506 0.905699H14.4668C14.5181 0.904958 14.5689 0.915256 14.6158 0.935888C14.663 0.957212 14.7058 0.987066 14.7421 1.02394C14.7802 1.06067 14.811 1.10419 14.833 1.15224C14.853 1.19876 14.8632 1.24882 14.8632 1.29941C14.8632 1.34999 14.853 1.40006 14.833 1.44658C14.8116 1.49434 14.7817 1.53782 14.7446 1.57488C14.7083 1.61283 14.6644 1.64281 14.6158 1.66293C14.5689 1.68356 14.5181 1.69386 14.4668 1.69312H9.11506V0.905699Z" fill="#575757"/>
        <path d="M23.7937 1.30066C23.6857 1.04967 23.5315 0.821002 23.3391 0.626446C23.1443 0.431087 22.9137 0.274799 22.6597 0.166069C22.3952 0.0549549 22.1108 -0.00153098 21.8237 3.15533e-05H18.5682C18.2828 -0.00133897 18.0001 0.0551528 17.7373 0.166069C17.4885 0.27738 17.2625 0.43345 17.0705 0.626446C16.8765 0.82021 16.7214 1.04903 16.6134 1.30066C16.5013 1.56227 16.4437 1.84387 16.4442 2.12833V4.26921H17.3231V3.03651H23.0537V4.26921H23.9528V2.12833C23.957 1.84452 23.9029 1.56285 23.7937 1.30066ZM18.5682 0.905691H21.8237C21.9889 0.903895 22.1525 0.93735 22.3036 1.0038C22.6029 1.12741 22.8415 1.36322 22.9678 1.66041C23.0316 1.80998 23.0642 1.97087 23.0638 2.13336L17.3231 2.13839C17.3252 1.97351 17.3613 1.81081 17.4292 1.66041C17.4939 1.5132 17.5855 1.37926 17.6994 1.26544C17.8135 1.15243 17.9481 1.06195 18.0959 0.998773C18.2451 0.935094 18.406 0.903379 18.5682 0.905691Z" fill="#575757"/>
        <path d="M32.0802 0V4.28679H31.1836V1.61509L28.3575 3.80377L25.5313 1.61509V4.28679H24.6372V0L28.3575 2.66918L32.0802 0Z" fill="#575757"/>
        <path d="M33.8153 1.52706C33.7865 1.57725 33.7612 1.62937 33.7395 1.68303H40.3061V2.58617H33.7395C33.7612 2.63984 33.7865 2.69195 33.8153 2.74215C33.8887 2.86679 33.9816 2.97891 34.0906 3.07422C34.1999 3.1685 34.3246 3.24338 34.4593 3.29561C34.5975 3.34708 34.7437 3.37349 34.8912 3.3736H40.3061V4.26919H34.8912C34.6047 4.27068 34.321 4.2133 34.0578 4.10064C33.803 3.99316 33.5715 3.83769 33.3759 3.64278C33.1818 3.44807 33.0267 3.21842 32.9187 2.96605C32.8071 2.70295 32.7496 2.42023 32.7496 2.1346C32.7496 1.84898 32.8071 1.56625 32.9187 1.30316C33.0267 1.05078 33.1818 0.821134 33.3759 0.626429C33.572 0.431567 33.8034 0.27537 34.0578 0.166053C34.3215 0.055405 34.605 -0.00106856 34.8912 1.53107e-05H40.3061V0.905674H34.8912C34.7437 0.905776 34.5975 0.932189 34.4593 0.983662C34.3246 1.03589 34.1999 1.11077 34.0906 1.20505C33.9824 1.29732 33.8895 1.40599 33.8153 1.52706Z" fill="#575757"/>
        <path d="M48.6634 0L46.5798 4.28679L44.7563 1.20251L42.9328 4.28679L40.8517 0H41.8493L43.001 2.52075L44.3876 0H45.1326L46.5091 2.52075L47.6683 0H48.6634Z" fill="#575757"/>
        <path d="M55.9345 1.30317C55.8247 1.05117 55.6688 0.821698 55.4748 0.626446C55.2791 0.431015 55.0476 0.274739 54.7929 0.166069C54.5293 0.0549532 54.2457 -0.00153975 53.9594 3.19143e-05H50.6989C50.4118 -0.00132184 50.1275 0.0551557 49.8629 0.166069C49.6085 0.275387 49.3772 0.431584 49.181 0.626446C48.987 0.821151 48.8318 1.0508 48.7239 1.30317C48.6122 1.56627 48.5547 1.84899 48.5547 2.13462C48.5547 2.42024 48.6122 2.70297 48.7239 2.96606C48.8318 3.21844 48.987 3.44809 49.181 3.64279C49.3766 3.83771 49.6081 3.99318 49.8629 4.10065C50.1269 4.21359 50.4115 4.27097 50.6989 4.26921H53.9594C54.246 4.27121 54.5298 4.21381 54.7929 4.10065C55.048 3.9938 55.2796 3.83826 55.4748 3.64279C55.6688 3.44754 55.8247 3.21807 55.9345 2.96606C56.0444 2.70255 56.101 2.41999 56.101 2.13462C56.101 1.84925 56.0444 1.56669 55.9345 1.30317ZM53.9594 3.37361H50.6989C50.5337 3.37517 50.3702 3.34173 50.219 3.2755C50.0711 3.21232 49.9366 3.12184 49.8225 3.00883C49.7086 2.89501 49.617 2.76108 49.5523 2.61386C49.488 2.46267 49.4554 2.30004 49.4563 2.13588C49.4554 1.9709 49.488 1.80745 49.5523 1.65538C49.617 1.50816 49.7086 1.37423 49.8225 1.26041C49.9366 1.1474 50.0711 1.05692 50.219 0.993741C50.3702 0.92751 50.5337 0.894065 50.6989 0.895628H53.9594C54.1245 0.894369 54.288 0.927801 54.4393 0.993741C54.5872 1.05692 54.7217 1.1474 54.8358 1.26041C54.9486 1.37648 55.0394 1.51202 55.1035 1.66041C55.1698 1.81193 55.2033 1.97564 55.202 2.14091C55.2033 2.30536 55.1697 2.46824 55.1035 2.6189C55.0388 2.7655 54.9481 2.89929 54.8358 3.01386C54.7243 3.12403 54.5933 3.21273 54.4494 3.2755C54.295 3.34284 54.1279 3.3763 53.9594 3.37361Z" fill="#575757"/>
        <path d="M63.0365 2.5862C63.2102 2.58679 63.3822 2.55168 63.5416 2.48306C63.6945 2.41767 63.8334 2.32374 63.9508 2.20633C64.0676 2.08811 64.161 1.94899 64.2261 1.79626C64.2959 1.63772 64.3312 1.46624 64.3296 1.29312C64.3302 1.1201 64.295 0.948812 64.2261 0.789976C64.0961 0.480634 63.8507 0.233547 63.5416 0.100669C63.382 0.0329118 63.21 -0.00134361 63.0365 4.03208e-05H56.773V4.27676H57.6721V2.5862H61.8066L63.3699 4.26922H64.5974L63.0365 2.5862ZM57.6721 0.905699H63.0365C63.087 0.905241 63.1369 0.915534 63.183 0.935888C63.231 0.957195 63.2746 0.987033 63.3118 1.02394C63.3491 1.06077 63.3791 1.1043 63.4002 1.15224C63.4214 1.198 63.4326 1.24774 63.433 1.29815C63.4325 1.3491 63.4222 1.39948 63.4027 1.44658C63.3804 1.49382 63.3506 1.53715 63.3143 1.57488C63.2771 1.61289 63.2324 1.64286 63.183 1.66293C63.1369 1.68328 63.087 1.69358 63.0365 1.69312H57.6721V0.905699Z" fill="#575757"/>
        <path d="M69.0803 2.13585L73 4.26918H71.1412L68.0397 2.57861H65.8778V4.26918H64.9888V0H65.8778V1.69056H68.0397L71.1412 0H73L69.0803 2.13585Z" fill="#575757"/>
        <path d="M16.2068 7.15206V8.61621H8.83709V15.9923H7.36719V8.61621H0V7.15206H16.2068Z" fill="#575757"/>
        <path d="M20.7074 10.1106C20.5737 10.3387 20.4725 10.5842 20.4069 10.8401H34.876V12.3018H20.4069C20.4716 12.558 20.5728 12.8037 20.7074 13.0313C21.0503 13.6354 21.593 14.1022 22.243 14.3521C22.5763 14.4775 22.9297 14.5414 23.2861 14.5408H34.876V15.9999H23.2861C22.6931 16.0023 22.1059 15.8833 21.5611 15.6502C21.0335 15.4288 20.554 15.1075 20.1493 14.7043C19.7444 14.3005 19.4212 13.8231 19.1971 13.298C18.9671 12.7537 18.8486 12.1691 18.8486 11.5785C18.8486 10.9879 18.9671 10.4033 19.1971 9.85901C19.648 8.79855 20.496 7.95481 21.5611 7.50681C22.1061 7.27452 22.6932 7.15635 23.2861 7.15964H34.876V8.60367H23.2861C22.9296 8.60182 22.576 8.6658 22.243 8.79234C21.92 8.91646 21.621 9.09519 21.359 9.32065C21.0998 9.5466 20.8797 9.81347 20.7074 10.1106Z" fill="#575757"/>
        <path d="M53.6741 9.84655C53.4499 9.32703 53.1295 8.85421 52.7296 8.45284C52.3272 8.04949 51.8504 7.72743 51.3253 7.50442C50.7793 7.27234 50.1914 7.15418 49.5978 7.15725H42.4706C41.8794 7.15378 41.2938 7.27198 40.7506 7.50442C39.6899 7.95372 38.8453 8.79502 38.3942 9.85158C38.1617 10.3928 38.0439 10.9761 38.0482 11.5648V16H39.503V13.2881H52.5654V16H54.0252V11.5598C54.0279 10.9707 53.9083 10.3874 53.6741 9.84655ZM42.4706 8.60378H49.5978C49.9954 8.60187 50.3892 8.68151 50.7545 8.83775C51.1085 8.98924 51.43 9.20702 51.7016 9.47926C51.9728 9.74845 52.1882 10.0681 52.3356 10.4201C52.4898 10.7803 52.568 11.1682 52.5654 11.5598V11.8365H39.503V11.5598C39.5023 11.1679 39.5822 10.78 39.7378 10.4201C40.0457 9.71385 40.6093 9.14892 41.3163 8.83775C41.6808 8.68137 42.0737 8.60171 42.4706 8.60378Z" fill="#575757"/>
        <path d="M72.9874 7.15236V15.9926H71.5428V9.87186L65.0899 14.8605L58.6496 9.87437V15.9926H57.2024V7.15236L65.0899 13.0291L72.9874 7.15236Z" fill="#575757"/>
    </symbol>
</svg>